<svg id="tablet" xmlns="http://www.w3.org/2000/svg" width="1002.2" height="887.4" viewBox="0 0 1002.2 887.4">
  <defs>
    <style>
      .cls-1 {
        opacity: 0.1;
      }
    </style>
  </defs>
  <path class="cls-1" d="M203.9,117.5v226L47.1,642.2l159,49.9V983.7H535.9V117.5Zm-4.3,483.4-43.2-20.1,43.2-54.9Z" transform="translate(-38.4 -96.3)"/>
  <g>
    <path d="M624.8,447.6H754.6c-1.4-.7-2.9-2.1-4.3-2.1q-60.6-.2-121.2,0C627.7,445.5,626.3,446.9,624.8,447.6Z" transform="translate(-38.4 -96.3)"/>
    <path d="M327.1,730.6q51.6.1,103.2,0c1.4,0,2.9-1.4,4.3-2.1H322.7C324.2,729.2,325.6,730.6,327.1,730.6Z" transform="translate(-38.4 -96.3)"/>
    <path d="M595.8,753.1H471.7c-7,0-10.2,3-10.2,9.5v128c0,6.9,2.2,9,8.9,9H596.8c7.3,0,9-1.7,9-9.3V762.8C605.8,754.9,603.9,753.1,595.8,753.1Zm-9.1,133.1q-53.1-.2-106.2.1c-4.5,0-5.7-1.3-5.7-5.7.2-18.1.1-36.2.1-54.2s.1-36.6-.1-54.8c0-3.8,1.1-5.2,5.1-5.2,14.3.3,28.7,0,43,.2,21.4.2,42.8.7,64.2.9,4.1,0,5.4,1.1,5.4,5.3q-.3,54,0,107.9C592.5,885.4,590.9,886.3,586.7,886.2Z" transform="translate(-38.4 -96.3)"/>
    <path d="M594.3,600.9H472.4c-7.9,0-9.8,1.8-9.8,9.8V732c0,8.2,2.9,11,11.2,11H593.4c7.4,0,10.1-2.7,10.1-10V610C603.5,602.6,601.8,600.9,594.3,600.9ZM583.6,728.5c-33.5-.1-67.1-.1-100.6.1-4.6,0-6.1-1.2-6-6,.3-17.1.1-34.2.1-51.4s.1-33.9-.1-50.9c-.1-4.4,1-6.1,5.8-6.1,33.9.2,67.9.2,101.8,0,4.5,0,5.6,1.4,5.6,5.8q-.3,51.2,0,102.3C590.2,727.3,588.4,728.6,583.6,728.5Z" transform="translate(-38.4 -96.3)"/>
    <path d="M442.4,754.2H316c-6.6,0-7.8,1.4-7.8,7.9V891.9c0,7.1,1.7,8.8,8.9,8.8H442.4c7.2,0,9-1.8,9-8.8V763.2C451.4,756.4,449.3,754.2,442.4,754.2Zm-9.8,132.1H327c-5,.1-6.6-1.9-6.5-6.5q0-53.1-.1-106.2c0-3.5.8-5,4.7-5,36.1-.2,72.2-.6,108.3-1,3.9-.1,4.7,1.5,4.6,4.9-.1,18.1,0,36.2,0,54.3s-.2,36.1.1,54.2C438.1,885.2,436.7,886.3,432.6,886.3Z" transform="translate(-38.4 -96.3)"/>
    <path d="M761.3,761.5c0-6.4-2-8.4-8.3-8.5H624.4c-6.4.1-7.4,1.1-7.4,7.6-.1,21.6,0,43.3,0,64.9s-.1,43.6,0,65.4c0,6.5,1,7.6,7.4,7.6H753c6.3,0,8.3-2,8.3-8.4ZM747.9,880.1c0,4-1.3,5.1-5.1,5q-53.7-.1-107.3.1c-4.5,0-5.2-1.7-5.2-5.6.2-17.9.1-35.8.1-53.7s.1-35.7-.1-53.6c0-4.1.7-6,5.4-5.9,35.6.2,71.2.1,106.8,0,4.1,0,5.5,1,5.4,5.3C747.8,807.8,747.8,844,747.9,880.1Z" transform="translate(-38.4 -96.3)"/>
    <path d="M603.6,457.2c0-7.9-1.6-9.6-9.4-9.6H475.7c-8.2,0-9.8,1.6-9.8,9.7,0,39,.2,77.9-.1,116.9-.1,11.9,2.1,11.7,12.9,13.2a25.4,25.4,0,0,0,3.9,0c34.1,0,68.2.1,102.3,0,3.8,0,7.7-.9,11.6-.9,5.8.1,7.2-2.8,7.1-8-.1-20.1,0-40.3,0-60.4ZM584.9,573c-33.5-.1-67.1-.1-100.6,0-4,0-5-1.4-5-5.2.2-17.1.1-34.2.1-51.4s.1-33.5-.1-50.3c0-3.8,1.1-5.1,5-5.1q50.4.2,100.6,0c4.3-.1,5.3,1.4,5.3,5.4q-.2,50.7,0,101.2C590.2,571.7,589.1,573.1,584.9,573Z" transform="translate(-38.4 -96.3)"/>
  </g>
  <path d="M384.8,485.7c-.1-2.7-4.3-3.5-4.9-.6a92.3,92.3,0,0,1-13.7,31.3,2.5,2.5,0,0,0,.9,3.4,2.6,2.6,0,0,0,3.4-.9,93.7,93.7,0,0,0,9.3-17.4,370.3,370.3,0,0,1-2.4,39.4,2.6,2.6,0,0,0,2.5,2.5,2.5,2.5,0,0,0,2.5-2.5A424.1,424.1,0,0,0,384.8,485.7Z" transform="translate(-38.4 -96.3)"/>
  <path d="M562.3,545a96.4,96.4,0,0,0-34.7-.1,98.6,98.6,0,0,0,20.1-39.1c2.2-8.4,2.8-18.7-4.4-24.9s-17.1-3.2-22.8,3.3a25.1,25.1,0,0,0-4.7,24.9,2.6,2.6,0,0,0,3.1,1.7,2.5,2.5,0,0,0,1.7-3.1,20.2,20.2,0,0,1,2.2-18.3c3.5-5.2,11.2-9.7,16.8-5.1s4.9,14,3.1,20.8a91.9,91.9,0,0,1-8.5,21.4,96.1,96.1,0,0,1-15.5,20.9,2.5,2.5,0,0,0,2.4,4.2,87.8,87.8,0,0,1,39.8-1.8,2.5,2.5,0,0,0,3.1-1.7A2.6,2.6,0,0,0,562.3,545Z" transform="translate(-38.4 -96.3)"/>
  <path d="M564.6,682.5c-1-9.4-9.3-16.4-18-18.7-11.4-2.9-22.9,2.1-33,7.2l-1.5-10.2c-.3-2.1-.6-4.3-1-6.5s-.5-2.8.1-4,2.5-1,3.6-1l6.9-.3,13.5-.4,15.3-.6c3.2-.1,3.2-5.1,0-5l-29.8,1.1-7.2.2c-2.2.1-4.3.6-5.8,2.3-3,3.3-1.5,8.5-.9,12.4l2.4,16.5c.3,1.6,2.4,2.1,3.7,1.4,8.5-4.3,17.7-9.1,27.5-8.9,7.2.2,14.8,4.1,18.1,10.7s-1.1,14.8-7.4,18.5a33.7,33.7,0,0,1-13.2,3.9c-4.8.5-9.9.8-14.6-.7s-7.6-4-8.6-8.1,1.2-7.6,4.7-8a2.5,2.5,0,0,0,2.5-2.5,2.5,2.5,0,0,0-2.5-2.5,11.4,11.4,0,0,0-9.6,9.1,14.1,14.1,0,0,0,5,13c4.4,3.7,9.9,4.9,15.5,5a50.1,50.1,0,0,0,16.8-2.1C556.5,701.4,565.7,693.2,564.6,682.5Z" transform="translate(-38.4 -96.3)"/>
  <path d="M1039.8,613.2c-3.6-6.2-144.6-277.3-145-285.1-1.3-27.5-1.3-55.1-1.4-82.6-.2-42.5-.1-85-.1-127.6,0-13.4-8.2-21.7-21.4-21.6-21,.3-42.1.9-63.1,1q-97.5.8-195.1,1.2L463.4,99.6l-177.8,1.1c-26.5.1-52.9.4-79.4-.1-13.3-.2-22.5,9.2-22.2,22.3.3,8.6,1,17.1,1,25.6.5,50.5.8,101,1.2,151.5.1,17.2.1,17.2.1,34.3,0,0-132.1,279.8-147.3,308.7-2.5,4.9,2.6,15.6,8.1,18.6s97.9,22.1,136.5,32.2c3.2.9,4.9,2,5,5.9.2,41.6.7,83.1.9,124.6.2,51.1.1,102.2,0,153.3,0,4.6,1.2,6.2,5.9,6,9.5-.3,19-.2,28.5,0,3.6.1,5.1-1,4.9-4.8-.6-9.2-1-18.5-1.1-27.8q-.7-84.7-1.1-169.4c-.2-23.8,0-47.7-.2-71.6,0-4.8,1.5-5.7,6-4.5,7.3,2,14.8,3.7,22.2,5.2,5.1.9,6.8,3.1,6.7,8.5-.2,72-.1,144-.1,215.9,0,8.2,0,8.2,7.9,8.2H810.5c7.9,0,7.9,0,7.9-7.7V692.3a25.4,25.4,0,0,0-.1-3.9c-.4-3.2,1-4.8,4-5.5l35.9-8.3c.2,2.3.4,3.7.4,5.2.4,49.2.9,98.3,1.1,147.5s.1,99.2.1,148.8c0,7.4,0,7.4,7.7,7.4s16.8-.3,25.1.1c5.4.4,6.7-1.7,6.4-6.6-.6-10.6-1-21.2-1.1-31.8-.5-58.3-.8-116.6-1.2-174.9V730.6c0-19.8.1-39.6-.1-59.3,0-4.1.5-7.1,5.5-7s104.1-21,128.4-29.1C1037.6,632.8,1042.6,617.9,1039.8,613.2ZM806.5,937.8q-266.8-.3-533.7-.1c-4.4,0-6.1-.8-6.1-5.7.2-70.9.1-141.7.1-212.6,0-1.6.2-3.2.4-5.7l22.5,5c4.5,1,9,2.3,13.5,2.9s5.2,2,5,5.8c-.7,18.7,3.3,15.6,15.9,15.6H439.9c7.1,0,9.2-2,9.2-9.3V611.2c0-7.2-2.1-9.2-9.3-9.2H417.2c2.3-5.2,3.8-9.3,5.9-13.1.5-.9,2.6-1.3,4-1.3,4.6-.2,9.3-.1,13.9-.1,6.2-.1,9.4-3.2,9.2-9.3-.2-8.3-.8-16.7-1-25,0-4.6.8-9.2.8-13.9s-.8-12.2-.8-18.3c.1-8.1.9-16.3,1-24.4.2-12.4.1-24.8.1-37.1,0-7.8-3-10.8-10.7-10.8H321c-7.9,0-9.5,1.6-9.5,9.5,0,24.1-.1,48.1.1,72.2,0,4.2-1.4,6.6-5.1,8.8-9.8,5.9-13.8,15.7-16.2,26.3-2.9,12.4-.4,24.5,3.9,36s9.9,24.8,2.9,38.2c-1.2,2.2-1.2,5-1.8,8.2-8.7-4.9-17.1-9.4-25.2-14.4-1.7-1.1-2.5-4-3.2-6.2s-.1-2.9-.1-4.4V187.7c0-9,.7-9.7,10-9.7H806.5c4.8,0,6.4,1.1,6.4,6.1q-.3,207.3-.1,414.5c0,4.1-1.1,6.4-4.8,8.3-7.3,3.7-14.2,8-21.9,12.4-.6-2-1-3.3-1.3-4.7s-.4-6.1-1.7-8.6c-4.6-9.2-2.3-17.3,1.4-26.1,7.1-16.8,10.3-34.1,3.8-52.1-2.6-7-6.7-13-12.7-16.5-4.3-2.5-10.2-2.2-15.4-3.2l-1.2-2.2c0-16.5-.1-33,.1-49.5.1-3.9-1-6.8-4.5-8.7H624.8c-1.1,1.4-3,2.7-3.2,4.2-.7,5.9-1,11.9-1.2,17.8-.2,7.5-.2,14.9,0,22.4.1,5,.9,10,1,15,.1,18.5,0,37,0,55.4,0,5.7-.1,11.4,0,17.1s3,6.9,7.7,6.8h36.3c10,0,10.7.4,18.3,10.1-3.2,1.2-6,3.2-8.8,3.2-15.6.4-31.3.2-47,.2-8,0-9.8,1.8-9.8,9.8V732.1c0,8.2,1.5,9.8,9.8,9.8H748.7c7.5,0,9.3-1.8,9.3-9.1,0-10.1.1-20.2-.1-30.3-.1-4.1.7-6,5.5-6.9,14.4-2.6,28.7-6.1,43-9.2a46.6,46.6,0,0,1,6-.5c.2,2.4.3,4.4.3,6.4q0,119.4.1,238.8C812.8,936,811.9,937.8,806.5,937.8ZM401.9,678.6c-.1-1.7.2-4.3,1.3-5.2,14.1-11.1,13.6-37.7.1-51.9a8.8,8.8,0,0,1-1-1.8l5.5-4.2c8.5-.3,17.1-.6,25.7-.7.4,0,.8,1.1,1.1,1.7a75,75,0,0,1,1,9.4c.1,31.1.1,62.1,0,93.2a75,75,0,0,1-1,9.4c-1.4.7-2.9,2.1-4.3,2.1q-51.6.1-103.2,0c-1.5,0-2.9-1.4-4.4-2.1v-2.3l3.4-1.1c5.3-.1,10.7-.3,16.1-.3l9.6.2h19l2.3-1.1c15-3.9,26.4-12.2,29.5-28.2C403.6,690.3,402,684.3,401.9,678.6ZM331.4,540.9c-5.8-2-6.6-6.2-6.5-11.8q.3-30.5,0-60.9c-.1-4.4.8-6.2,5.7-6.2,33.2.3,66.4.2,99.6.1,4.5-.1,5.6,1.3,5.6,5.7-.1,33,0,65.9-.1,98.9,0,3.4,1.6,7.5-4.9,7.5s-5.1-3.7-5.2-7.3c0-12.7-7.7-23.4-19.4-25.9-8-1.7-16.2-1.2-23.3,3.1-10.4,6.2-20.3,13.1-30.3,19.6l-1.9,1.2c-5.1-7.2-9.7-13.8-14.5-20.3A9.8,9.8,0,0,0,331.4,540.9Zm-11.1,76.5c-.6.7-4.9-6.9-5.4-7.6-.8-2.8-12.9-15.5-13.8-27.9-.7-10.2,4.3-21.2,8.2-24.1s8.5-4.3,13.1-.2,17.4,16.6,19.5,23.8S323.6,612.7,320.3,617.4Zm453-58.2c-3.3,10.3-7.9,20.3-12,30.3-.5,1.1-5,10.6-5.9,11.4-9.8-8.2-17.2-25.2-19.8-35.5-1.2-5,11-31.7,17-36.5s14.1-3.8,17.4,1.8A35.2,35.2,0,0,1,773.3,559.2Zm-63.4-37.3v-.7c-.4-7.7-4.2-17.4-12.8-18.7h-2.6A45.7,45.7,0,0,1,709,488.9c2-1.2,1.3-3.8-.6-4.6a83.6,83.6,0,0,0-39-5.3,2.7,2.7,0,0,0-2.5,2.5c0,1.3,1.2,2.7,2.5,2.5a79.2,79.2,0,0,1,32.8,3.4A51.1,51.1,0,0,0,686.1,507a2.5,2.5,0,0,0,4.3,2.5c1.5-2.3,4.8-2.6,7.2-1.7s5.3,4.7,6.3,7.9a29.9,29.9,0,0,1,.8,3.2l-6.5-3.6c-10.5-5.3-21.6-6.4-32.3,1.1-7,4.9-9.6,12.3-10.7,19.9-1.6,10.5,1.1,20.6,6,30,2.7,5.3,1.9,6.5-4.1,6.6H640.3c-3.8,0-5.5-1.6-5.5-5.8.1-33.7.1-67.5,0-101.2-.1-3.9,1.6-5.5,5-5.8a87.7,87.7,0,0,1,8.9-.1h84.5c1.3,0,2.6-.1,3.9,0,8,.2,8.5.7,8.5,8.5,0,13.6.1,27.2,0,40.8,0,2.2-.1,4.7-1.2,6.4-4.3,7-9.1,13.8-13.1,19.7C724.3,531.1,717.2,526.4,709.9,521.9Zm34.7,199.9c.3,4.6-1.4,5.7-5.7,5.6-31.7-.1-63.3,0-95,0-12.4,0-12.4,0-12.4-12.2V621.9c0-8.2.4-8.6,8.4-8.7h29.6l1.2,2.1c-1.6,7.1-2,14,1.1,20.8a17.6,17.6,0,0,0,2.4,4.5c-11.3,12.8-16.7,31.5-12.1,48.1a29.8,29.8,0,0,0,7.6,13.5,22.6,22.6,0,0,0,12.9,6.1,18,18,0,0,0,13.7-4.1,38.4,38.4,0,0,0,5.6-5.8,34.7,34.7,0,0,0,3.1-4.4,56.5,56.5,0,0,0,7.1,1.7c6.8,1.1,13.9-.1,20.9-.2a32.5,32.5,0,0,1,5.4.1c4.9.5,6.7,3.2,6.3,8.3A132.2,132.2,0,0,0,744.6,721.8Zm-46-27.2a58,58,0,0,1-4.7,5.2,13.5,13.5,0,0,1-10.8,3.7c-8.5-1-14-8.3-16.2-16.1s-1.6-17.2.9-25.3a50.5,50.5,0,0,1,9.8-17.7c1.6,2.7,1.8,5.7,1.1,9.6-3.4,20.3,6.8,32.6,21.5,38.5Zm307.3-77c-31.9,8.3-68.1,15.7-100.1,24-33.9,8.8-68,16.8-102,25.3-7.9,2-15.6,5.3-23.6,6.6a237.8,237.8,0,0,1-29.3,2.3,350.3,350.3,0,0,1-35.5-.2c-4.6-.3-9.3-1.6-12.6-4.6a18.1,18.1,0,0,0-3.2-4.1l-.3-.8c-1.5-3.6-1-8.7.1-12.7,3.3-12.5,2.6-15.4-7.8-22.5-5.2-3.6-3.6-9.1-2.6-13.3,1.9-7.8,4-16,11.7-20.8,2.5-1.6,2.4-3.8.3-6.6-8.9-11.9-21.6-20.3-26.2-34.7-1.6-5.2-7.1-11.9-1.8-20.4,2.2-3.5,7.6-4.6,11.1-2.9,8.2,4,16.6,8.1,24.3,13.2,12.5,8.1,19.3,20.9,24.7,34.3,4.8,11.9,11,22.6,23.5,27.6,8.4,3.5,10.3,10.5,11.4,18.2.7,5.1,1.6,10.1,7.3,11.9a13.2,13.2,0,0,0,6.8.6c19.3-4.5,36.3-14.3,53.3-23.9,26.7-15.2,53-30.9,79.5-46.3a152.5,152.5,0,0,1,13.9-7.2c5.6-2.7,7-5.6,3.8-10.8q-15.6-24.7-31.9-49.1c-10.5-15.7-21.4-31.2-32.2-46.8-2.5-3.5-5.5-6.1-11.1-4.4,0,8.7-.1,17.5,0,26.3,0,1.5.1,3,.1,4.5q0,45.6.1,91.2c0,3.8-1.2,5.9-4.5,7.8-10.4,6.2-20.5,12.8-30.7,19.3-.9.5-2,.7-4,1.5V181.8c0-9.2-.2-9.4-9.4-9.4H270.9c-9.6,0-9.7.1-9.7,9.7V628.5c-5.9-3.5-10.7-6.2-15.3-9.1s-9.6-6.5-14.6-9.3-6-5.7-6-10.8q.3-41.1,0-82.2c-.1-12.3-.6-24.6-1.2-36.8-.1-1.7-1.4-4.2-2.7-4.7s-4.7-.4-6,.8c-4.3,4.1-8.7,8.3-11.9,13.2q-28.2,42.1-55.9,84.7c-4.2,6.4-2.3,11.7,4.2,15,14.4,7.4,28.7,14.9,42.8,22.8,27.7,15.6,55.1,31.8,82.9,47.1,7.2,3.9,14.5,8.4,23.5,7.8s14.9-5.3,13.7-13.8c-2.5-17.2,7.5-27.9,17.6-39,4.8-5.4,9.8-10.8,13.5-16.9,7.1-12,18.6-18.6,29.8-25.4,5.4-3.3,11.9-4.9,18.1-6.6,7.8-2.2,11.4,3.8,12.9,12.2s-4.1,16.9-9.2,24.3-8.3,12.3-12.2,18.6c-2.2,3.6-.6,6.8,2,9.7,7.6,8.6,6.5,24.7-2.1,32.2-4.7,4.1-6.9,9.4-4.4,15.5,7.4,18-2.2,25.1-16.6,27.7-9.9,1.8-20.5,1.2-30.6.1-43.2-4.6-84.4-18.2-126.5-28-39.2-9.2-78-19.8-117-29.9-5.1-1.4-10.2-3.2-15.6-5,3.8-8.2,7.5-16.1,11.1-24,18.8-41.1,37.1-82.4,56.3-123.4,14.5-31,30.1-61.5,44.9-92.4,10.4-21.7,21.9-42.6,35.6-62.3a11.3,11.3,0,0,0,1.9-6.2c.1-20.1.1-40.3,0-60.4-.3-43-.6-86.1-1.2-129.1-.1-5,1.4-6.4,6.3-6.2,10,.4,20.1.1,30.2.1l224.7-1.2,172.2-1.1,175-1.1c6.1-.1,12.2-.5,18.3-1.1,4.5-.4,5.7,1.2,5.7,5.6q-.3,68.9,0,137.6c0,8.8-.2,17.6,1.3,26.2.9,5.1,4.7,9.8,7.3,14.7,10.3,19.2,20.9,38.2,30.9,57.6,12,23.3,24,46.6,35.1,70.3,15.6,33,68.5,139.2,78.4,160.1C1010.3,610.5,1011.2,616.2,1005.9,617.6ZM896.1,555.5V529.2L909.7,547Zm-709.2-.2V585c-5.5-3.3-10.3-6-15.7-9.1Z" transform="translate(-38.4 -96.3)"/>
  <path d="M406.2,801.5a2.6,2.6,0,0,0-2.1-3.8L361.5,795a2.5,2.5,0,0,0-2.5,2.5,2.6,2.6,0,0,0,2.5,2.5l38.4,2.5A200.1,200.1,0,0,0,387.4,829a51.9,51.9,0,0,0-12.4,2.1c-3.1.9-1.8,5.7,1.3,4.8a71.2,71.2,0,0,1,9.2-1.8q-2.7,7.6-4.8,15.3c-1.4,5-2.5,9.9-3.5,15a2.5,2.5,0,0,0,4.8,1.3,205.5,205.5,0,0,1,8.9-31.8,48.5,48.5,0,0,1,10,1,2.7,2.7,0,0,0,3.1-1.8,2.4,2.4,0,0,0-1.8-3,58.9,58.9,0,0,0-9.4-1.2c1.9-4.7,3.9-9.3,6.1-13.9S403.6,805.9,406.2,801.5Z" transform="translate(-38.4 -96.3)"/>
  <path d="M564.2,838.1a20.7,20.7,0,0,0-2.7-4.5,30,30,0,0,0-15-10.1l1.5-1.2c4.2-3.4,6.4-9.3,6.3-14.7a18.9,18.9,0,0,0-4.6-11.6,28.5,28.5,0,0,0-10.6-7.5,27.3,27.3,0,0,0-10.8-2.7c-8.3.2-16.9,3.8-21.8,10.7a21.2,21.2,0,0,0-3,6.7c-.7,2.8-1.1,6-.2,8.8,1.5,4.5,5.3,8.4,9.3,11.1A25.8,25.8,0,0,0,497.1,836a24,24,0,0,0,0,22.1c3.4,6.5,9.6,11.4,16.4,14.1s12,2.6,18.1,2.4a65.5,65.5,0,0,0,19.1-3.3,22.6,22.6,0,0,0,7.4-3.8,21,21,0,0,0,6-7.8A26.6,26.6,0,0,0,564.2,838.1ZM510,813.9a13.5,13.5,0,0,1-1.9-3.3,9.7,9.7,0,0,1-.2-3.8,17.3,17.3,0,0,1,1.6-5.6,17.6,17.6,0,0,1,8.8-8l2.3-1,2.8-.8,1.5-.3h.9l2.5-.2h1.9l1.1.2a33.8,33.8,0,0,1,4.2,1.3l1,.4h.3l.4.2,2.4,1.2a20.5,20.5,0,0,1,3.9,2.7,15,15,0,0,1,5.3,7.7,11.7,11.7,0,0,1,.4,5,19.3,19.3,0,0,1-1.8,5.8c-1.7,3.1-5,5.1-8.4,6.3a66.2,66.2,0,0,0-7.7-.4l-10.3.3A24,24,0,0,1,510,813.9Zm51,39.7a19.9,19.9,0,0,1-4,8.1,8.6,8.6,0,0,1-1.3,1.4l-.6.5h0l-.4.3a22.8,22.8,0,0,1-3,1.7c-4.6,2.2-10.6,3.2-16,3.7a64.2,64.2,0,0,1-8.8.3,41.8,41.8,0,0,1-7.2-.8c-11.9-2.5-23.3-13.6-19.7-26.6a20.5,20.5,0,0,1,13.3-14.1,30.2,30.2,0,0,1,7.3-1.3,30.5,30.5,0,0,0,18.9.1h.6c5.2.9,10.2,2.7,14.2,6.1a20.6,20.6,0,0,1,2.9,3A21.5,21.5,0,0,1,561,853.6Z" transform="translate(-38.4 -96.3)"/>
  <path d="M715.5,816.9c-.1-4.8-.4-9.6-.8-14.4a2.7,2.7,0,0,0-1.2-2.2,27.9,27.9,0,0,0-14.8-16.8c-5.6-2.7-12.1-4.2-18.2-3.1a22.5,22.5,0,0,0-14.8,9.8,27.7,27.7,0,0,0-4.9,13.6,26.3,26.3,0,0,0,4.7,16.2c2.9,4.4,7.7,7.3,12.5,9.1a27.9,27.9,0,0,0,15.4,1.4,28.7,28.7,0,0,0,13.9-7,22.4,22.4,0,0,0,3.2-3.7,236.5,236.5,0,0,1-1.6,32.6c-.6,4.7-1.3,9.4-2.1,14a2.7,2.7,0,0,0,1.7,3.1c1.3.3,2.9-.4,3.1-1.7A255.7,255.7,0,0,0,715.5,816.9Zm-9.9,1.2a22.9,22.9,0,0,1-10.7,6.8c-8.1,2.5-17.7.4-23.7-5.7a19.9,19.9,0,0,1-4-6.7,20.3,20.3,0,0,1-1.5-7.3,22.4,22.4,0,0,1,4.3-12.5,17.5,17.5,0,0,1,10.3-7.2c4.4-1.1,9.1-.2,13.3,1.3,8.5,2.9,15.4,10.1,15.8,19.4A16.6,16.6,0,0,1,705.6,818.1Z" transform="translate(-38.4 -96.3)"/>
  <g>
    <path d="M649.3,245.8c-15.9-14.8-32.7,15.1-32.7,15.1s-18.8-33.5-35-12.2c-19.7,25.8,35,65.1,35,65.1S671.2,266.2,649.3,245.8Zm-32.9,59.4s-35.6-25.6-22.8-42.4c10.5-13.8,22.8,8,22.8,8s10.9-19.4,21.2-9.8C651.9,274.3,616.4,305.2,616.4,305.2Z" transform="translate(-38.4 -96.3)"/>
    <path d="M487.9,241.8c-15.9-14.8-32.7,15.1-32.7,15.1s-18.8-33.5-35-12.2c-19.7,25.8,35,65.1,35,65.1S509.8,262.2,487.9,241.8ZM455,301.2s-35.6-25.6-22.8-42.4c10.5-13.8,22.8,8,22.8,8s10.9-19.4,21.2-9.8C490.5,270.3,455,301.2,455,301.2Z" transform="translate(-38.4 -96.3)"/>
    <path d="M679.6,263.2c-1.7-16-6.9-31.1-20.1-44-24.5-23.9-62.4-23.1-86.1,1-15.8,16-21.8,34.4-21.5,54.5v.5H517.8a78.5,78.5,0,0,0-1.6-23.5c-3.3-16-10.8-30.5-26.7-41.6-9.1-6.3-19.5-10.5-32-10.8-20.9-.5-36,7.8-47.6,20.2-14.5,15.2-20.9,38.8-19,62.2,1.2,14.1,7.5,26.8,17.9,38.4s22.7,17.7,39.3,19c19.4,1.5,35.2-5.6,46.7-17.2a87.6,87.6,0,0,0,12.5-15.5v27.3l6.8-2.5c9.3-3.5,26.5-7.5,33.2-3.6a5.2,5.2,0,0,1,2.6,4c.7,4.9-1,6.7-1.6,7.3-3.4,3.4-11.5,3.2-14.1,2.9a5,5,0,0,0-1.3,9.9,28.8,28.8,0,0,0,4.6.3c5,0,12.8-1,17.9-6.1,2.7-2.7,5.6-7.6,4.4-15.8a15.3,15.3,0,0,0-7.4-11.1c-9.5-5.5-25.8-2.1-35.1.6V285.2h35.4c2.1,14.8,8.5,28.4,20.9,40.4,10.4,10.1,24.1,16.3,41.3,16.2a58.8,58.8,0,0,0,36.7-12.7c18.6-14.6,26.4-32.9,28-52.9C680,275.3,679.9,264.1,679.6,263.2Zm-175,8.5c-1,20.1-15.4,40.2-24,47.1a44.7,44.7,0,0,1-25.9,10A42.1,42.1,0,0,1,423,317.5c-18-17-22.1-36.8-18.8-58,1.9-12.1,6.5-23.3,15.7-33.2s17.8-15.3,31.8-16.6c15.9-1.4,27.5,5.2,36.4,14.5C493.1,229.3,505.7,250.5,504.6,271.7Zm150.2,36.6a53.8,53.8,0,0,1-23.7,19.5c-18.9,8.3-37,1.2-47.5-9-13.6-13.5-18.5-29.2-18.2-47.3-.5-14.3,4.4-28.8,15.8-41.6,4.7-5.3,11.2-9.9,18.1-13.6,12.9-7.1,30.9-4.9,43.1,3.8s19.2,20.8,22.4,33.5C669.5,272.6,666.5,291,654.8,308.3Z" transform="translate(-38.4 -96.3)"/>
    <path d="M474.6,398.9c-20.1,0-27.2-27.3-27.9-30.4a8,8,0,0,1,15.6-3.7c1.5,6.3,6.7,18.1,12.3,18.1,10.8,0,13.3-17.1,13.3-17.3a8,8,0,0,1,15.9,2.1C502.4,378.5,494.5,398.9,474.6,398.9Z" transform="translate(-38.4 -96.3)"/>
  </g>
</svg>
