<svg xmlns="http://www.w3.org/2000/svg" xmlns:xlink="http://www.w3.org/1999/xlink" width="1366" zoomAndPan="magnify" viewBox="0 0 1024.5 576" height="768" preserveAspectRatio="xMidYMid meet" version="1.0"><defs><g/><clipPath id="cd2ce33f36"><path d="M 203.820312 0.140625 L 779.539062 0.140625 L 779.539062 575.859375 L 203.820312 575.859375 Z M 203.820312 0.140625 " clip-rule="nonzero"/></clipPath></defs><g clip-path="url(#cd2ce33f36)"><path fill="#000000" d="M 687.242188 575.859375 L 296.117188 575.859375 C 294.609375 575.859375 293.097656 575.820312 291.589844 575.742188 C 290.082031 575.667969 288.578125 575.554688 287.074219 575.40625 C 285.574219 575.257812 284.074219 575.070312 282.582031 574.847656 C 281.085938 574.625 279.601562 574.367188 278.117188 574.070312 C 276.636719 573.773438 275.164062 573.445312 273.699219 573.074219 C 272.234375 572.707031 270.78125 572.304688 269.335938 571.863281 C 267.890625 571.425781 266.457031 570.949219 265.035156 570.441406 C 263.617188 569.933594 262.207031 569.386719 260.8125 568.808594 C 259.417969 568.230469 258.039062 567.617188 256.671875 566.972656 C 255.308594 566.324219 253.960938 565.648438 252.628906 564.933594 C 251.296875 564.222656 249.984375 563.476562 248.6875 562.699219 C 247.394531 561.925781 246.117188 561.117188 244.863281 560.277344 C 243.609375 559.4375 242.375 558.566406 241.160156 557.667969 C 239.949219 556.769531 238.757812 555.839844 237.589844 554.882812 C 236.421875 553.921875 235.28125 552.9375 234.160156 551.921875 C 233.042969 550.910156 231.949219 549.867188 230.882812 548.800781 C 229.8125 547.730469 228.773438 546.636719 227.757812 545.519531 C 226.746094 544.402344 225.757812 543.257812 224.800781 542.089844 C 223.84375 540.921875 222.914062 539.734375 222.011719 538.519531 C 221.113281 537.308594 220.242188 536.074219 219.40625 534.820312 C 218.566406 533.5625 217.757812 532.289062 216.980469 530.992188 C 216.203125 529.699219 215.460938 528.382812 214.746094 527.054688 C 214.035156 525.722656 213.355469 524.375 212.710938 523.007812 C 212.0625 521.644531 211.449219 520.265625 210.871094 518.867188 C 210.292969 517.472656 209.75 516.066406 209.238281 514.644531 C 208.730469 513.222656 208.257812 511.789062 207.816406 510.34375 C 207.378906 508.898438 206.972656 507.445312 206.605469 505.980469 C 206.238281 504.515625 205.90625 503.042969 205.609375 501.5625 C 205.316406 500.082031 205.054688 498.59375 204.832031 497.101562 C 204.609375 495.605469 204.425781 494.109375 204.273438 492.605469 C 204.125 491.105469 204.011719 489.597656 203.9375 488.089844 C 203.863281 486.582031 203.824219 485.074219 203.820312 483.5625 L 203.820312 92.4375 C 203.824219 90.925781 203.863281 89.417969 203.9375 87.910156 C 204.011719 86.402344 204.125 84.894531 204.273438 83.394531 C 204.425781 81.890625 204.609375 80.394531 204.832031 78.898438 C 205.054688 77.40625 205.316406 75.917969 205.609375 74.4375 C 205.90625 72.957031 206.238281 71.484375 206.605469 70.019531 C 206.972656 68.554688 207.378906 67.101562 207.816406 65.65625 C 208.257812 64.210938 208.730469 62.777344 209.238281 61.355469 C 209.75 59.933594 210.292969 58.527344 210.871094 57.132812 C 211.449219 55.734375 212.0625 54.355469 212.710938 52.992188 C 213.355469 51.625 214.035156 50.277344 214.746094 48.945312 C 215.460938 47.617188 216.203125 46.300781 216.980469 45.007812 C 217.757812 43.710938 218.566406 42.4375 219.40625 41.179688 C 220.242188 39.925781 221.113281 38.691406 222.011719 37.480469 C 222.914062 36.265625 223.84375 35.078125 224.800781 33.910156 C 225.757812 32.742188 226.746094 31.597656 227.757812 30.480469 C 228.773438 29.363281 229.8125 28.269531 230.882812 27.199219 C 231.949219 26.132812 233.042969 25.089844 234.160156 24.078125 C 235.28125 23.0625 236.421875 22.078125 237.589844 21.117188 C 238.757812 20.160156 239.949219 19.230469 241.160156 18.332031 C 242.375 17.433594 243.609375 16.5625 244.863281 15.722656 C 246.117188 14.882812 247.394531 14.074219 248.6875 13.300781 C 249.984375 12.523438 251.296875 11.777344 252.628906 11.066406 C 253.960938 10.351562 255.308594 9.675781 256.671875 9.027344 C 258.039062 8.382812 259.417969 7.769531 260.8125 7.191406 C 262.207031 6.613281 263.617188 6.066406 265.035156 5.558594 C 266.457031 5.046875 267.890625 4.574219 269.335938 4.136719 C 270.78125 3.695312 272.234375 3.292969 273.699219 2.925781 C 275.164062 2.554688 276.636719 2.226562 278.117188 1.929688 C 279.601562 1.632812 281.085938 1.375 282.582031 1.152344 C 284.074219 0.929688 285.574219 0.742188 287.074219 0.59375 C 288.578125 0.445312 290.082031 0.332031 291.589844 0.257812 C 293.097656 0.179688 294.609375 0.140625 296.117188 0.140625 L 687.242188 0.140625 C 688.753906 0.140625 690.261719 0.179688 691.773438 0.257812 C 693.28125 0.332031 694.785156 0.445312 696.289062 0.59375 C 697.789062 0.742188 699.289062 0.929688 700.78125 1.152344 C 702.277344 1.375 703.761719 1.632812 705.242188 1.929688 C 706.726562 2.226562 708.199219 2.554688 709.664062 2.925781 C 711.125 3.292969 712.582031 3.695312 714.027344 4.136719 C 715.472656 4.574219 716.90625 5.046875 718.324219 5.558594 C 719.746094 6.066406 721.15625 6.613281 722.550781 7.191406 C 723.945312 7.769531 725.324219 8.382812 726.691406 9.027344 C 728.054688 9.675781 729.402344 10.351562 730.734375 11.066406 C 732.066406 11.777344 733.378906 12.523438 734.675781 13.300781 C 735.96875 14.074219 737.246094 14.882812 738.5 15.722656 C 739.753906 16.5625 740.988281 17.433594 742.203125 18.332031 C 743.414062 19.230469 744.605469 20.160156 745.773438 21.117188 C 746.9375 22.078125 748.082031 23.0625 749.203125 24.078125 C 750.320312 25.089844 751.414062 26.132812 752.480469 27.199219 C 753.550781 28.269531 754.589844 29.363281 755.605469 30.480469 C 756.617188 31.597656 757.605469 32.742188 758.5625 33.910156 C 759.519531 35.078125 760.449219 36.265625 761.347656 37.480469 C 762.25 38.691406 763.117188 39.925781 763.957031 41.179688 C 764.796875 42.4375 765.605469 43.710938 766.382812 45.007812 C 767.160156 46.300781 767.902344 47.617188 768.617188 48.945312 C 769.328125 50.277344 770.007812 51.625 770.652344 52.992188 C 771.300781 54.355469 771.914062 55.734375 772.492188 57.132812 C 773.070312 58.527344 773.613281 59.933594 774.125 61.355469 C 774.632812 62.777344 775.105469 64.210938 775.546875 65.65625 C 775.984375 67.101562 776.390625 68.554688 776.757812 70.019531 C 777.125 71.484375 777.457031 72.957031 777.753906 74.4375 C 778.046875 75.917969 778.308594 77.40625 778.53125 78.898438 C 778.753906 80.394531 778.9375 81.890625 779.089844 83.394531 C 779.238281 84.894531 779.351562 86.402344 779.425781 87.910156 C 779.5 89.417969 779.539062 90.925781 779.539062 92.4375 L 779.539062 483.5625 C 779.539062 485.074219 779.5 486.582031 779.425781 488.089844 C 779.351562 489.597656 779.238281 491.105469 779.089844 492.605469 C 778.9375 494.109375 778.753906 495.605469 778.53125 497.101562 C 778.308594 498.59375 778.046875 500.082031 777.753906 501.5625 C 777.457031 503.042969 777.125 504.515625 776.757812 505.980469 C 776.390625 507.445312 775.984375 508.898438 775.546875 510.34375 C 775.105469 511.789062 774.632812 513.222656 774.125 514.644531 C 773.613281 516.066406 773.070312 517.472656 772.492188 518.867188 C 771.914062 520.265625 771.300781 521.644531 770.652344 523.007812 C 770.007812 524.375 769.328125 525.722656 768.617188 527.054688 C 767.902344 528.382812 767.160156 529.699219 766.382812 530.992188 C 765.605469 532.289062 764.796875 533.5625 763.957031 534.820312 C 763.117188 536.074219 762.25 537.308594 761.351562 538.519531 C 760.449219 539.734375 759.519531 540.921875 758.5625 542.089844 C 757.605469 543.257812 756.617188 544.402344 755.605469 545.519531 C 754.589844 546.636719 753.550781 547.730469 752.480469 548.800781 C 751.414062 549.867188 750.320312 550.910156 749.203125 551.921875 C 748.082031 552.9375 746.9375 553.921875 745.773438 554.882812 C 744.605469 555.839844 743.414062 556.769531 742.203125 557.667969 C 740.988281 558.566406 739.753906 559.4375 738.5 560.277344 C 737.246094 561.117188 735.96875 561.925781 734.675781 562.699219 C 733.378906 563.476562 732.066406 564.222656 730.734375 564.933594 C 729.402344 565.648438 728.054688 566.324219 726.691406 566.972656 C 725.324219 567.617188 723.945312 568.230469 722.550781 568.808594 C 721.15625 569.386719 719.746094 569.933594 718.324219 570.441406 C 716.90625 570.949219 715.472656 571.425781 714.027344 571.863281 C 712.582031 572.304688 711.125 572.707031 709.664062 573.074219 C 708.199219 573.445312 706.726562 573.773438 705.242188 574.070312 C 703.761719 574.367188 702.277344 574.625 700.78125 574.847656 C 699.289062 575.070312 697.789062 575.257812 696.289062 575.40625 C 694.785156 575.554688 693.28125 575.667969 691.773438 575.742188 C 690.261719 575.820312 688.753906 575.859375 687.242188 575.859375 Z M 234.121094 444.503906 L 234.121094 483.5625 C 234.125 485.59375 234.226562 487.617188 234.429688 489.636719 C 234.632812 491.65625 234.929688 493.660156 235.328125 495.652344 C 235.726562 497.640625 236.222656 499.605469 236.8125 501.550781 C 237.402344 503.492188 238.089844 505.398438 238.867188 507.273438 C 239.644531 509.148438 240.511719 510.980469 241.46875 512.769531 C 242.429688 514.558594 243.472656 516.296875 244.597656 517.984375 C 245.726562 519.671875 246.933594 521.300781 248.222656 522.867188 C 249.511719 524.4375 250.871094 525.9375 252.308594 527.375 C 253.742188 528.808594 255.246094 530.171875 256.8125 531.457031 C 258.382812 532.746094 260.011719 533.953125 261.695312 535.082031 C 263.382812 536.210938 265.121094 537.253906 266.914062 538.210938 C 268.703125 539.167969 270.535156 540.035156 272.40625 540.816406 C 274.28125 541.59375 276.191406 542.277344 278.132812 542.867188 C 280.074219 543.460938 282.039062 543.953125 284.03125 544.351562 C 286.019531 544.75 288.027344 545.050781 290.046875 545.25 C 292.066406 545.453125 294.089844 545.554688 296.117188 545.558594 L 687.242188 545.558594 C 689.273438 545.554688 691.296875 545.453125 693.316406 545.25 C 695.335938 545.050781 697.34375 544.75 699.332031 544.351562 C 701.324219 543.953125 703.289062 543.460938 705.230469 542.867188 C 707.171875 542.277344 709.082031 541.59375 710.953125 540.816406 C 712.828125 540.035156 714.660156 539.167969 716.449219 538.210938 C 718.238281 537.253906 719.976562 536.210938 721.664062 535.082031 C 723.351562 533.953125 724.980469 532.746094 726.550781 531.457031 C 728.117188 530.171875 729.621094 528.808594 731.054688 527.375 C 732.492188 525.9375 733.851562 524.4375 735.140625 522.867188 C 736.425781 521.300781 737.636719 519.671875 738.765625 517.984375 C 739.890625 516.296875 740.933594 514.558594 741.894531 512.769531 C 742.851562 510.980469 743.71875 509.148438 744.496094 507.273438 C 745.273438 505.398438 745.960938 503.492188 746.550781 501.550781 C 747.140625 499.605469 747.636719 497.640625 748.035156 495.652344 C 748.433594 493.660156 748.730469 491.65625 748.933594 489.636719 C 749.132812 487.617188 749.238281 485.59375 749.238281 483.5625 L 749.238281 442.535156 L 659.578125 352.875 L 569.949219 442.535156 C 568.527344 443.953125 566.882812 445.046875 565.027344 445.816406 C 563.167969 446.582031 561.234375 446.960938 559.222656 446.960938 C 557.21875 446.957031 555.289062 446.574219 553.433594 445.808594 C 551.582031 445.042969 549.945312 443.949219 548.527344 442.535156 L 392.292969 286.332031 Z M 392.292969 249.761719 C 394.300781 249.765625 396.230469 250.152344 398.085938 250.925781 C 399.9375 251.695312 401.574219 252.792969 402.992188 254.214844 L 559.222656 410.476562 L 648.882812 320.847656 C 649.585938 320.144531 650.351562 319.515625 651.179688 318.960938 C 652.003906 318.410156 652.878906 317.945312 653.796875 317.5625 C 654.714844 317.183594 655.664062 316.894531 656.640625 316.703125 C 657.613281 316.507812 658.601562 316.410156 659.59375 316.410156 C 660.589844 316.410156 661.574219 316.507812 662.550781 316.703125 C 663.523438 316.894531 664.472656 317.183594 665.390625 317.5625 C 666.308594 317.945312 667.183594 318.410156 668.011719 318.960938 C 668.835938 319.515625 669.601562 320.144531 670.304688 320.847656 L 749.238281 399.78125 L 749.238281 92.4375 C 749.238281 90.40625 749.132812 88.382812 748.933594 86.363281 C 748.730469 84.34375 748.433594 82.339844 748.035156 80.347656 C 747.636719 78.359375 747.140625 76.394531 746.550781 74.449219 C 745.960938 72.507812 745.273438 70.601562 744.496094 68.726562 C 743.71875 66.851562 742.851562 65.019531 741.894531 63.230469 C 740.933594 61.441406 739.890625 59.703125 738.765625 58.015625 C 737.636719 56.328125 736.425781 54.699219 735.140625 53.132812 C 733.851562 51.5625 732.492188 50.0625 731.054688 48.625 C 729.621094 47.191406 728.117188 45.828125 726.550781 44.542969 C 724.980469 43.253906 723.351562 42.046875 721.664062 40.917969 C 719.980469 39.789062 718.242188 38.746094 716.449219 37.789062 C 714.660156 36.832031 712.828125 35.964844 710.953125 35.183594 C 709.082031 34.40625 707.171875 33.722656 705.230469 33.132812 C 703.289062 32.539062 701.324219 32.046875 699.332031 31.648438 C 697.34375 31.25 695.335938 30.949219 693.316406 30.75 C 691.296875 30.546875 689.273438 30.445312 687.242188 30.441406 L 296.117188 30.441406 C 294.089844 30.445312 292.066406 30.546875 290.046875 30.75 C 288.027344 30.949219 286.019531 31.25 284.03125 31.648438 C 282.039062 32.046875 280.074219 32.539062 278.132812 33.132812 C 276.191406 33.722656 274.28125 34.40625 272.40625 35.183594 C 270.535156 35.964844 268.703125 36.832031 266.914062 37.789062 C 265.121094 38.746094 263.382812 39.789062 261.695312 40.917969 C 260.011719 42.046875 258.382812 43.253906 256.8125 44.542969 C 255.246094 45.828125 253.742188 47.191406 252.308594 48.625 C 250.871094 50.0625 249.511719 51.5625 248.222656 53.132812 C 246.933594 54.699219 245.726562 56.328125 244.597656 58.015625 C 243.472656 59.703125 242.429688 61.441406 241.46875 63.230469 C 240.511719 65.019531 239.644531 66.851562 238.867188 68.726562 C 238.089844 70.601562 237.402344 72.507812 236.8125 74.449219 C 236.222656 76.394531 235.726562 78.359375 235.328125 80.347656 C 234.929688 82.339844 234.632812 84.34375 234.429688 86.363281 C 234.226562 88.382812 234.125 90.40625 234.121094 92.4375 L 234.121094 401.660156 L 381.566406 254.214844 C 382.988281 252.789062 384.628906 251.691406 386.488281 250.917969 C 388.347656 250.148438 390.28125 249.761719 392.292969 249.761719 Z M 615.914062 212.914062 C 614.714844 212.914062 613.511719 212.886719 612.308594 212.828125 C 611.109375 212.773438 609.910156 212.683594 608.710938 212.570312 C 607.515625 212.453125 606.324219 212.308594 605.132812 212.132812 C 603.941406 211.957031 602.757812 211.753906 601.578125 211.519531 C 600.398438 211.285156 599.226562 211.023438 598.058594 210.734375 C 596.890625 210.441406 595.734375 210.121094 594.582031 209.773438 C 593.429688 209.425781 592.289062 209.050781 591.15625 208.648438 C 590.023438 208.242188 588.902344 207.8125 587.789062 207.351562 C 586.675781 206.894531 585.578125 206.40625 584.492188 205.894531 C 583.402344 205.382812 582.328125 204.84375 581.265625 204.277344 C 580.207031 203.710938 579.160156 203.121094 578.128906 202.503906 C 577.09375 201.886719 576.078125 201.242188 575.078125 200.574219 C 574.078125 199.910156 573.09375 199.21875 572.128906 198.5 C 571.160156 197.785156 570.210938 197.046875 569.28125 196.285156 C 568.351562 195.523438 567.441406 194.738281 566.546875 193.933594 C 565.65625 193.125 564.785156 192.296875 563.933594 191.449219 C 563.082031 190.597656 562.253906 189.726562 561.445312 188.835938 C 560.636719 187.949219 559.851562 187.039062 559.085938 186.109375 C 558.324219 185.179688 557.582031 184.234375 556.867188 183.265625 C 556.148438 182.300781 555.457031 181.320312 554.785156 180.320312 C 554.117188 179.320312 553.472656 178.304688 552.855469 177.273438 C 552.234375 176.242188 551.640625 175.199219 551.074219 174.136719 C 550.507812 173.078125 549.964844 172.003906 549.449219 170.917969 C 548.933594 169.832031 548.449219 168.730469 547.988281 167.621094 C 547.523438 166.511719 547.09375 165.390625 546.6875 164.257812 C 546.28125 163.125 545.902344 161.984375 545.550781 160.832031 C 545.203125 159.683594 544.882812 158.523438 544.589844 157.359375 C 544.296875 156.191406 544.03125 155.019531 543.796875 153.839844 C 543.558594 152.660156 543.355469 151.476562 543.175781 150.285156 C 543 149.097656 542.851562 147.902344 542.734375 146.707031 C 542.613281 145.511719 542.523438 144.3125 542.464844 143.109375 C 542.40625 141.910156 542.375 140.707031 542.375 139.503906 C 542.375 138.300781 542.402344 137.101562 542.460938 135.898438 C 542.519531 134.699219 542.609375 133.5 542.726562 132.300781 C 542.84375 131.105469 542.988281 129.914062 543.164062 128.722656 C 543.339844 127.53125 543.546875 126.347656 543.78125 125.167969 C 544.015625 123.988281 544.277344 122.816406 544.566406 121.648438 C 544.859375 120.484375 545.179688 119.324219 545.527344 118.171875 C 545.878906 117.023438 546.253906 115.878906 546.660156 114.746094 C 547.0625 113.617188 547.496094 112.492188 547.957031 111.382812 C 548.414062 110.269531 548.902344 109.171875 549.414062 108.085938 C 549.929688 106.996094 550.46875 105.921875 551.035156 104.863281 C 551.601562 103.800781 552.195312 102.753906 552.8125 101.722656 C 553.429688 100.691406 554.074219 99.675781 554.742188 98.675781 C 555.410156 97.675781 556.101562 96.691406 556.816406 95.726562 C 557.535156 94.761719 558.273438 93.8125 559.035156 92.882812 C 559.796875 91.953125 560.582031 91.042969 561.390625 90.152344 C 562.199219 89.261719 563.027344 88.390625 563.878906 87.539062 C 564.726562 86.6875 565.597656 85.859375 566.488281 85.050781 C 567.378906 84.242188 568.289062 83.457031 569.21875 82.695312 C 570.148438 81.933594 571.097656 81.191406 572.0625 80.476562 C 573.027344 79.757812 574.011719 79.066406 575.011719 78.398438 C 576.011719 77.730469 577.027344 77.085938 578.058594 76.46875 C 579.089844 75.851562 580.136719 75.257812 581.195312 74.691406 C 582.257812 74.125 583.332031 73.582031 584.417969 73.070312 C 585.503906 72.554688 586.601562 72.066406 587.714844 71.605469 C 588.824219 71.148438 589.945312 70.714844 591.078125 70.308594 C 592.210938 69.902344 593.351562 69.527344 594.503906 69.175781 C 595.65625 68.828125 596.8125 68.507812 597.980469 68.214844 C 599.148438 67.921875 600.320312 67.660156 601.5 67.425781 C 602.679688 67.191406 603.863281 66.984375 605.050781 66.808594 C 606.242188 66.632812 607.433594 66.484375 608.632812 66.367188 C 609.828125 66.25 611.027344 66.160156 612.230469 66.101562 C 613.429688 66.042969 614.632812 66.015625 615.835938 66.015625 C 617.039062 66.015625 618.238281 66.042969 619.441406 66.105469 C 620.640625 66.164062 621.839844 66.25 623.039062 66.371094 C 624.234375 66.488281 625.425781 66.636719 626.617188 66.8125 C 627.804688 66.988281 628.992188 67.195312 630.171875 67.429688 C 631.347656 67.664062 632.523438 67.929688 633.6875 68.21875 C 634.855469 68.511719 636.015625 68.832031 637.164062 69.183594 C 638.316406 69.53125 639.457031 69.910156 640.589844 70.316406 C 641.722656 70.722656 642.84375 71.152344 643.953125 71.613281 C 645.066406 72.074219 646.164062 72.5625 647.25 73.078125 C 648.335938 73.589844 649.410156 74.132812 650.472656 74.699219 C 651.53125 75.265625 652.578125 75.859375 653.609375 76.480469 C 654.640625 77.097656 655.65625 77.742188 656.65625 78.410156 C 657.65625 79.078125 658.636719 79.769531 659.601562 80.488281 C 660.570312 81.203125 661.515625 81.945312 662.445312 82.707031 C 663.375 83.472656 664.285156 84.257812 665.175781 85.066406 C 666.066406 85.871094 666.9375 86.703125 667.785156 87.554688 C 668.636719 88.402344 669.464844 89.273438 670.273438 90.167969 C 671.078125 91.058594 671.863281 91.96875 672.625 92.898438 C 673.390625 93.828125 674.128906 94.777344 674.84375 95.742188 C 675.558594 96.710938 676.25 97.691406 676.917969 98.691406 C 677.585938 99.691406 678.230469 100.710938 678.847656 101.742188 C 679.464844 102.773438 680.054688 103.820312 680.621094 104.878906 C 681.1875 105.941406 681.730469 107.015625 682.242188 108.101562 C 682.753906 109.191406 683.242188 110.289062 683.703125 111.402344 C 684.160156 112.511719 684.59375 113.632812 684.996094 114.765625 C 685.402344 115.898438 685.777344 117.042969 686.125 118.191406 C 686.476562 119.34375 686.792969 120.503906 687.085938 121.667969 C 687.378906 122.835938 687.640625 124.007812 687.875 125.1875 C 688.105469 126.367188 688.3125 127.554688 688.488281 128.742188 C 688.664062 129.933594 688.808594 131.125 688.925781 132.324219 C 689.042969 133.519531 689.128906 134.71875 689.1875 135.917969 C 689.246094 137.121094 689.273438 138.324219 689.273438 139.523438 C 689.273438 140.726562 689.238281 141.925781 689.179688 143.121094 C 689.117188 144.320312 689.027344 145.519531 688.90625 146.710938 C 688.789062 147.90625 688.640625 149.097656 688.460938 150.28125 C 688.28125 151.46875 688.074219 152.652344 687.839844 153.828125 C 687.605469 155.003906 687.339844 156.175781 687.046875 157.339844 C 686.753906 158.503906 686.433594 159.660156 686.082031 160.804688 C 685.730469 161.953125 685.355469 163.09375 684.949219 164.222656 C 684.542969 165.351562 684.109375 166.472656 683.652344 167.578125 C 683.191406 168.6875 682.703125 169.785156 682.1875 170.867188 C 681.675781 171.953125 681.136719 173.023438 680.570312 174.082031 C 680.003906 175.140625 679.410156 176.183594 678.792969 177.210938 C 678.175781 178.242188 677.53125 179.253906 676.867188 180.253906 C 676.199219 181.25 675.507812 182.230469 674.792969 183.195312 C 674.078125 184.160156 673.339844 185.105469 672.578125 186.03125 C 671.816406 186.960938 671.03125 187.867188 670.226562 188.757812 C 669.421875 189.644531 668.59375 190.515625 667.746094 191.363281 C 666.898438 192.210938 666.027344 193.039062 665.140625 193.847656 C 664.25 194.652344 663.34375 195.4375 662.414062 196.199219 C 661.488281 196.960938 660.542969 197.699219 659.578125 198.414062 C 658.617188 199.128906 657.636719 199.820312 656.636719 200.488281 C 655.640625 201.15625 654.628906 201.800781 653.597656 202.417969 C 652.570312 203.035156 651.527344 203.628906 650.46875 204.195312 C 649.410156 204.761719 648.339844 205.300781 647.257812 205.816406 C 646.171875 206.332031 645.074219 206.816406 643.96875 207.277344 C 642.859375 207.738281 641.742188 208.171875 640.613281 208.578125 C 639.480469 208.984375 638.34375 209.363281 637.195312 209.714844 C 636.046875 210.0625 634.890625 210.386719 633.730469 210.679688 C 632.566406 210.972656 631.394531 211.238281 630.21875 211.472656 C 629.042969 211.710938 627.859375 211.917969 626.671875 212.097656 C 625.488281 212.273438 624.296875 212.425781 623.101562 212.542969 C 621.910156 212.664062 620.710938 212.753906 619.511719 212.816406 C 618.316406 212.878906 617.117188 212.910156 615.914062 212.914062 Z M 615.914062 96.316406 C 614.503906 96.3125 613.09375 96.378906 611.683594 96.515625 C 610.277344 96.652344 608.882812 96.855469 607.496094 97.128906 C 606.109375 97.398438 604.738281 97.742188 603.382812 98.148438 C 602.03125 98.554688 600.699219 99.027344 599.394531 99.566406 C 598.085938 100.105469 596.808594 100.707031 595.5625 101.371094 C 594.3125 102.03125 593.101562 102.757812 591.925781 103.539062 C 590.75 104.320312 589.613281 105.160156 588.519531 106.054688 C 587.425781 106.949219 586.375 107.894531 585.375 108.894531 C 584.375 109.890625 583.421875 110.933594 582.523438 112.027344 C 581.625 113.117188 580.78125 114.25 579.996094 115.421875 C 579.207031 116.59375 578.480469 117.804688 577.8125 119.050781 C 577.140625 120.296875 576.535156 121.570312 575.992188 122.875 C 575.449219 124.179688 574.972656 125.507812 574.558594 126.859375 C 574.144531 128.210938 573.800781 129.582031 573.519531 130.964844 C 573.242188 132.351562 573.03125 133.746094 572.890625 135.152344 C 572.75 136.558594 572.679688 137.96875 572.675781 139.382812 C 572.671875 140.796875 572.738281 142.207031 572.875 143.613281 C 573.011719 145.019531 573.214844 146.417969 573.488281 147.804688 C 573.761719 149.191406 574.101562 150.5625 574.511719 151.914062 C 574.917969 153.265625 575.390625 154.597656 575.929688 155.90625 C 576.46875 157.210938 577.070312 158.488281 577.734375 159.734375 C 578.398438 160.984375 579.121094 162.195312 579.90625 163.371094 C 580.6875 164.550781 581.527344 165.683594 582.421875 166.777344 C 583.316406 167.871094 584.261719 168.921875 585.261719 169.921875 C 586.257812 170.921875 587.300781 171.871094 588.394531 172.769531 C 589.484375 173.667969 590.617188 174.511719 591.789062 175.300781 C 592.964844 176.085938 594.175781 176.816406 595.417969 177.484375 C 596.664062 178.152344 597.941406 178.757812 599.246094 179.300781 C 600.550781 179.84375 601.878906 180.320312 603.230469 180.734375 C 604.582031 181.148438 605.949219 181.492188 607.335938 181.769531 C 608.722656 182.046875 610.117188 182.257812 611.523438 182.398438 C 612.929688 182.539062 614.339844 182.609375 615.753906 182.613281 C 617.167969 182.617188 618.578125 182.546875 619.984375 182.410156 C 621.390625 182.277344 622.789062 182.070312 624.175781 181.796875 C 625.5625 181.523438 626.929688 181.183594 628.285156 180.773438 C 629.636719 180.367188 630.96875 179.894531 632.273438 179.355469 C 633.582031 178.816406 634.859375 178.214844 636.105469 177.550781 C 637.351562 176.886719 638.566406 176.160156 639.742188 175.378906 C 640.917969 174.59375 642.050781 173.753906 643.148438 172.859375 C 644.242188 171.964844 645.289062 171.019531 646.289062 170.023438 C 647.289062 169.023438 648.238281 167.980469 649.136719 166.886719 C 650.035156 165.796875 650.878906 164.664062 651.664062 163.488281 C 652.453125 162.316406 653.179688 161.105469 653.847656 159.859375 C 654.515625 158.617188 655.121094 157.339844 655.664062 156.035156 C 656.207031 154.730469 656.683594 153.402344 657.097656 152.050781 C 657.507812 150.699219 657.855469 149.328125 658.132812 147.941406 C 658.410156 146.558594 658.617188 145.160156 658.757812 143.753906 C 658.898438 142.347656 658.972656 140.9375 658.972656 139.523438 C 658.972656 138.113281 658.90625 136.703125 658.769531 135.296875 C 658.632812 133.894531 658.425781 132.496094 658.152344 131.113281 C 657.878906 129.726562 657.535156 128.359375 657.128906 127.007812 C 656.71875 125.652344 656.246094 124.324219 655.707031 123.019531 C 655.167969 121.714844 654.566406 120.4375 653.902344 119.191406 C 653.238281 117.945312 652.515625 116.734375 651.730469 115.558594 C 650.949219 114.382812 650.109375 113.25 649.214844 112.15625 C 648.324219 111.0625 647.375 110.015625 646.378906 109.015625 C 645.382812 108.015625 644.339844 107.066406 643.25 106.167969 C 642.160156 105.269531 641.027344 104.429688 639.855469 103.640625 C 638.683594 102.855469 637.472656 102.125 636.230469 101.457031 C 634.988281 100.789062 633.710938 100.183594 632.410156 99.640625 C 631.105469 99.097656 629.777344 98.617188 628.429688 98.207031 C 627.078125 97.792969 625.710938 97.445312 624.324219 97.167969 C 622.941406 96.886719 621.546875 96.675781 620.140625 96.535156 C 618.738281 96.394531 617.328125 96.320312 615.914062 96.316406 Z M 615.914062 96.316406 " fill-opacity="1" fill-rule="nonzero"/></g><g fill="#ffffff" fill-opacity="1"><g transform="translate(966.428253, 537.278347)"><g><path d="M 9.8125 -10.90625 C 9.8125 -10 9.554688 -9.253906 9.046875 -8.671875 C 8.535156 -8.097656 7.8125 -7.710938 6.875 -7.515625 L 6.875 -7.4375 C 8.019531 -7.289062 8.867188 -6.925781 9.421875 -6.34375 C 9.972656 -5.757812 10.25 -4.992188 10.25 -4.046875 C 10.25 -2.679688 9.773438 -1.632812 8.828125 -0.90625 C 7.890625 -0.175781 6.554688 0.1875 4.828125 0.1875 C 4.066406 0.1875 3.375 0.128906 2.75 0.015625 C 2.125 -0.0859375 1.515625 -0.285156 0.921875 -0.578125 L 0.921875 -2.125 C 1.535156 -1.8125 2.191406 -1.578125 2.890625 -1.421875 C 3.585938 -1.265625 4.25 -1.1875 4.875 -1.1875 C 7.34375 -1.1875 8.578125 -2.148438 8.578125 -4.078125 C 8.578125 -5.804688 7.21875 -6.671875 4.5 -6.671875 L 3.09375 -6.671875 L 3.09375 -8.0625 L 4.515625 -8.0625 C 5.628906 -8.0625 6.507812 -8.304688 7.15625 -8.796875 C 7.8125 -9.296875 8.140625 -9.976562 8.140625 -10.84375 C 8.140625 -11.539062 7.898438 -12.085938 7.421875 -12.484375 C 6.941406 -12.878906 6.289062 -13.078125 5.46875 -13.078125 C 4.84375 -13.078125 4.253906 -12.992188 3.703125 -12.828125 C 3.148438 -12.660156 2.519531 -12.347656 1.8125 -11.890625 L 1 -12.984375 C 1.582031 -13.453125 2.253906 -13.816406 3.015625 -14.078125 C 3.785156 -14.335938 4.59375 -14.46875 5.4375 -14.46875 C 6.820312 -14.46875 7.894531 -14.148438 8.65625 -13.515625 C 9.425781 -12.878906 9.8125 -12.007812 9.8125 -10.90625 Z M 9.8125 -10.90625 "/></g></g></g></svg>