<svg xmlns="http://www.w3.org/2000/svg" xmlns:xlink="http://www.w3.org/1999/xlink" width="1366" zoomAndPan="magnify" viewBox="0 0 1024.5 576" height="768" preserveAspectRatio="xMidYMid meet" version="1.0"><defs><g/><clipPath id="c3ff179681"><path d="M 240 352 L 807 352 L 807 553.84375 L 240 553.84375 Z M 240 352 " clip-rule="nonzero"/></clipPath></defs><g fill="#ffffff" fill-opacity="1"><g transform="translate(966.428253, 537.278347)"><g><path d="M 9.8125 -10.90625 C 9.8125 -10 9.554688 -9.253906 9.046875 -8.671875 C 8.535156 -8.097656 7.8125 -7.710938 6.875 -7.515625 L 6.875 -7.4375 C 8.019531 -7.289062 8.867188 -6.925781 9.421875 -6.34375 C 9.972656 -5.757812 10.25 -4.992188 10.25 -4.046875 C 10.25 -2.679688 9.773438 -1.632812 8.828125 -0.90625 C 7.890625 -0.175781 6.554688 0.1875 4.828125 0.1875 C 4.066406 0.1875 3.375 0.128906 2.75 0.015625 C 2.125 -0.0859375 1.515625 -0.285156 0.921875 -0.578125 L 0.921875 -2.125 C 1.535156 -1.8125 2.191406 -1.578125 2.890625 -1.421875 C 3.585938 -1.265625 4.25 -1.1875 4.875 -1.1875 C 7.34375 -1.1875 8.578125 -2.148438 8.578125 -4.078125 C 8.578125 -5.804688 7.21875 -6.671875 4.5 -6.671875 L 3.09375 -6.671875 L 3.09375 -8.0625 L 4.515625 -8.0625 C 5.628906 -8.0625 6.507812 -8.304688 7.15625 -8.796875 C 7.8125 -9.296875 8.140625 -9.976562 8.140625 -10.84375 C 8.140625 -11.539062 7.898438 -12.085938 7.421875 -12.484375 C 6.941406 -12.878906 6.289062 -13.078125 5.46875 -13.078125 C 4.84375 -13.078125 4.253906 -12.992188 3.703125 -12.828125 C 3.148438 -12.660156 2.519531 -12.347656 1.8125 -11.890625 L 1 -12.984375 C 1.582031 -13.453125 2.253906 -13.816406 3.015625 -14.078125 C 3.785156 -14.335938 4.59375 -14.46875 5.4375 -14.46875 C 6.820312 -14.46875 7.894531 -14.148438 8.65625 -13.515625 C 9.425781 -12.878906 9.8125 -12.007812 9.8125 -10.90625 Z M 9.8125 -10.90625 "/></g></g></g><g clip-path="url(#c3ff179681)"><path fill="#0d0d0d" d="M 806.945312 545.765625 C 801.910156 551.769531 795.335938 553.507812 787.695312 553.507812 C 611.960938 553.386719 436.226562 553.425781 260.46875 553.308594 C 243.726562 553.289062 238.277344 546.578125 241.199219 530.070312 C 249.214844 484.859375 273.757812 449.441406 308.941406 421.601562 C 367.519531 375.246094 435.535156 354.96875 509.511719 352.597656 C 561.296875 350.941406 611.800781 357.335938 660.09375 376.863281 C 731.230469 405.589844 787.140625 449.300781 806.925781 528 C 806.945312 533.921875 806.945312 539.84375 806.945312 545.765625 Z M 806.945312 545.765625 " fill-opacity="1" fill-rule="nonzero"/></g><path fill="#0d0d0d" d="M 516.875 27.386719 C 584.496094 22.292969 651.664062 85.90625 649.984375 160.714844 C 648.308594 235.066406 590.023438 294.453125 515.652344 294.335938 C 441.8125 294.21875 383.175781 234.179688 382.386719 159.570312 C 381.59375 87.40625 445.683594 22.3125 516.875 27.386719 Z M 516.875 27.386719 " fill-opacity="1" fill-rule="nonzero"/></svg>