<svg id="Laptop" xmlns="http://www.w3.org/2000/svg" width="1031.7" height="965.9" viewBox="0 0 1031.7 965.9">
  <defs>
    <style>
      .cls-1 {
        opacity: 0.1;
      }

      .cls-2 {
        stroke: #fff;
        stroke-miterlimit: 10;
      }
    </style>
  </defs>
  <path class="cls-1" d="M541.1,949.1V105.6s-311.9-20.3-330.4,25c-28.8,71-17.1,207.7-10.1,281,10.1,106.1,17,168.9,17,168.9L187.4,812.7s-5.9,126.8,46,142.2S421.1,940.8,541.1,949.1Z" transform="translate(-28.2 -7.1)"/>
  <path d="M890.6,89.5H221.9a46.8,46.8,0,0,0-46.7,46.7c-.2,101.2,18.1,409.7,25.6,449.3-14.1,99-50.4,231.8-18.6,327.7,10.8,32.1,27.2,45.4,157.1,42.3,57.9-1.4,324.7,3.9,485.3,4,92.9.1,98.9-57.3,100.4-102.4,6.6-89.5-15.4-178.5-29.6-266.6-1.3-7.6-.5-26.1,1.2-33.2,10.3-42.7,29.7-432,29.7-432A35.7,35.7,0,0,0,890.6,89.5Zm-8.3,806.9c-29,55.1-649.9,50-671.1-6.3-24-71.3-1-167.6,8.9-242.1,1.2-1.8,1-3.9,1-6l1.8-2.1c.7-15.4,5.1-30.2,7.1-45.9,207.2-5.1,418.7-5.1,627.3-7.1,4.6,0,6.7,1,7.5,5.8,4.3,25.1,8.9,50.1,13.2,75.3C888.4,740.1,911.6,828,882.3,896.4ZM866.7,549.8c-.7,4.9-3.6,5.8-7.7,5.2-208.8,2.1-417.6,1.2-626.3,2.2-5.3,0-7.3-2-8.4-6.6-16.1-77.2-14.2-283.3-12.4-374.9a45.9,45.9,0,0,1,45.9-45.1H842.1a52.8,52.8,0,0,1,52.7,49.6C899.1,250.7,879.3,504.1,866.7,549.8Z" transform="translate(-28.2 -7.1)"/>
  <path d="M128.2,492.2c-6.1-4.4-13.4-7.2-19.2-11.9-14.9-12.9-22.7-32-24.2-51.2-.5-12.6,3.8-28.9-7.1-38.1-15.8,12-4.5,35.1-11.1,51.3-7.4,20.8-19.4,38.8-34.3,54.9-2.7,2.9-5.3,5.7-3.5,11.1,13.4-2.4,29.7-4.7,34.5,11.5s4.9,30.3,2.1,45.7c-.1,7.7-8.6,29,2.2,30.9,16,.2,11-22.1,15-32.5,5.9-18.4,25.7-59.6,48.8-56C142.5,506.7,133.1,495.3,128.2,492.2ZM81.3,527.7C78.6,512.8,73.1,499,56,494.1c7.3-11.9,14-23,20.6-33.9C100.8,514.5,121.9,478.8,81.3,527.7Z" transform="translate(-28.2 -7.1)"/>
  <path d="M1056.6,94.1c9.7-9.5-4.7-11.2-11.7-12.6C1013.5,84,991,39.9,996.5,11.9c.4-12.8-19.9,3.3-16.8,12.7C985.1,82,913.3,97.1,950,109c29.2-1.6,44.4,29.2,45,54.3,1.2,10.5,12.9,11.5,15.9,1.5C1016.6,136.2,1030.1,108.5,1056.6,94.1Zm-52.9,38.2c-8.4-17.7-21-31.2-42.9-35C975,87.1,983,73.2,989.4,57.2c9.2,16.9,19.2,32.4,37.7,37.9Z" transform="translate(-28.2 -7.1)"/>
  <path d="M1032.4,890.4c-20.2-11.9-28.5-34.9-32.9-56.8-.8-6.7-4.8-13.2-8.2-19.4-.7-1.4-4.8-1-7.4-1.5-2.2,9.9,3,19.7,2.9,29.6,2.6,28.8-23.7,45-31.5,69.6.1,5.1-4.1,5.8-3.8,10,.2.9,2.3,1.9,3.6,2,39.3,3.1,28.7,51,45.3,49.1,8-.8,7-12.6,8.6-18.7,3.7-19.3,10.8-36.9,24.6-51.4C1038.4,897.8,1038.4,893.9,1032.4,890.4Zm-35.3,47.4c-8.1-12.2-17.7-20.8-32.5-23.4,14.1-12.7,23.9-27.5,31.4-45.3,5.8,12.2,11.7,22.9,22.9,29.5C1007.8,909.4,1002.8,923.2,997.1,937.8Z" transform="translate(-28.2 -7.1)"/>
  <path d="M822.4,349.9c.1-20.3,18.2-113.4-.9-119.5-16.8-1.8-31.8,8.2-47.5,12.4-78,27.6-152,30.1-220.4-22.3,16.8-19.3,40.9-69.4-.9-71.4a59.3,59.3,0,0,0-36.9,13c-22.3,17.9-.4,44.6,14.8,59.7-72.2,65.3-241.8-38-252.1,24-2.1,49.4,16,83.8-10,132.9-2.9-8.9-5-17.3-8.4-25.1-4.3-10.3-17.2-5.6-20.8,3-12.5,24.2-28.9,101.7,20.7,59.6,3.4,39.8,6.2,78.2,9.1,117.8,2.1,7.6,8,6.1,9.9-1-2.6-30.6-3.3-61.3-5.1-91.9,0-13.5-5-28.1-1.8-41.3,13.1-22.3,25.5-45.7,24.9-72.4.1-17.9.2-35.8-2.8-53.6-.2-10.4-6.5-30.9,8.4-32.7,31.1-3,61.1,8.6,91.6,12.3,18.5,2.9,37.1,5.1,55.7,6.3,30.1.5,61.8-3.9,86.2-23.1,7-5.4,6.9-5.2,14.3.2,81.7,63.1,176.5,42.6,265.4,8.1,2.4,35.8-4.9,72-6.6,107.9-.4,7.6-.4,14.8-5.5,21-20.7,45.3-13.7,96.7-15.8,145-.7,7.8,6.9,7.6,11,3.1,11-12.9,4-31.7,5.2-47.2-.8-29.4.4-59.1,9.8-87.2h1.4c5.9,20.7,26.8,32.6,43.9,19.2C889.8,382.1,861.1,328.3,822.4,349.9ZM241.8,411.6c-1.4-15.9,3.3-30.1,8.4-44.2h1.7C256.3,390.2,262.7,395.1,241.8,411.6ZM541.7,211.4c-9.3-12.3-32.3-29.9-10.6-40.9C577.6,149.4,558.4,189.3,541.7,211.4ZM844.6,398c-14,.4-15.3-17.1-19.3-27,1.2-8.9,15.1-13.3,21.4-10.1s10.3,9.2,10.9,18.9C856.2,387.6,854.1,397.2,844.6,398Z" transform="translate(-28.2 -7.1)"/>
  <path d="M641.4,777H435a9,9,0,0,0-8.5,9.2v77.5c0,6.6,2.8,9.3,9.3,9.3H643.7c6.9,0,9.8-2.8,9.8-9.6V788.9C653.5,780,650.4,777,641.4,777Zm-3.8,76.2c0,3.7-1,4.9-4.8,4.9q-92.8-.1-185.9,0c-3.5,0-4.5-1.2-4.5-4.6.2-18.7.2-37.3,0-56,0-4,1.5-4.6,5-4.6h92.5c30.8,0,61.6.1,92.4-.1,4.2,0,5.3,1.2,5.3,5.3C637.4,816.6,637.4,834.9,637.6,853.2Z" transform="translate(-28.2 -7.1)"/>
  <path class="cls-2" d="M833.3,638.1c0-9-2.2-11.1-11.3-11.1H274.6c-9.3,0-11.4,2.1-11.4,11.5,0,32.3,0,64.7.1,97,0,9.4,2,11.5,11.3,11.5H822.5c8.6,0,10.8-2.2,10.8-10.4ZM523.2,667.9h25.3v29.6H523.2Zm0-5V641.2h25.3v21.8Zm30.3,5h25.2v29.6H553.5Zm0-5V641.1h25.2v21.9Zm30.2,5h25.2v29.6H583.7Zm0-5V641h25.2v22Zm60.5,5h25.2v29.6H644.2Zm-30.3-27h25.3v22.1H613.9Zm0,27h25.3v29.6H613.9Zm30.3,34.6h25.2v25.6l-25.2.2Zm120.9-34.6h25.3v29.6H765.1Zm-30.2-5V641l25.2.2v21.7Zm25.2,5v29.6H734.9V667.9Zm-55.4-5v-22h25.2v21.9Zm25.2,5v29.6H704.7V667.9Zm-55.5-5V640.8h25.3v22.1Zm25.3,5v29.6H674.4V667.9Zm0,34.6v25.3l-25.3.2V702.5Zm5,0h25.2v25l-25.2.3Zm30.2,0h25.2v24.7l-25.2.3Zm30.2,0h25.3v24.3l-25.3.4Zm0-39.6V641.2l25.3.3v21.4Zm30.3,5h22.8v29.6H795.4Zm22.8-5H795.4V641.6l22.9.3C818.3,648.6,818.2,655.7,818.2,662.9ZM669.4,640.8v22.1H644.2V640.8Zm-151.2.5v21.6H493V641.4Zm-239,26.6h27.3v29.6H279.4C279.4,687.6,279.3,677.8,279.2,667.9Zm32.3,0h25.3v29.6H311.5Zm25.3,34.6v28.4l-25.3.3V702.5Zm65.5-34.6h25.2v29.6H402.3Zm-30.3-5V642h25.3v21Zm25.3,5v29.6H372V667.9Zm-55.5-5V642H367v20.9Zm25.2,5v29.6H341.8V667.9Zm0,34.6v28l-25.2.3V702.5Zm5,0h25.3v27.7l-25.3.2Zm30.3,0h25.2v27.4l-25.2.2Zm0-39.6v-21h25.2v21.1Zm30.2,5h25.2v29.6H432.5Zm0-5V641.7h25.2v21.3Zm30.2,5H488v29.6H462.7Zm0-5V641.6l25.3-.2v21.5Zm30.3,5h25.2v29.6H493ZM336.8,642v20.9H311.5V642Zm-57.7,5.9c0-4.3.8-6,5.7-6h21.7v20.9H279.1Zm.3,54.6h27.1v28.8l-28.1.4C279.1,722,279.3,712.2,279.4,702.5Zm153.1,27.3V702.5H639.2v25.8C572.4,728.8,501.2,729.2,432.5,729.8Zm362.9-3V702.5h22.8c0,8.2.1,16.3.1,23.9Z" transform="translate(-28.2 -7.1)"/>
  <g>
    <path d="M561.4,449.4c-9.3-1.4-10.8,14.3-22,14.2,2.5-6.6-.4-16.9,7.2-19.7,20.9-9.2,13.6-32-3.3-41.3-5.9-4.6-8.4-11.4-6.4-18.7a84.6,84.6,0,0,0,1.3-36.1c-6.9-40.6-51.8-68.9-91.5-57-30.8,6.6-50.7,33.8-54.7,62.9-5.1-.3-19.7-2.7-26.5-9.9a7,7,0,0,0-10.2,9.6c11.8,12.5,33.4,14.1,35.9,14.3h.2a70.1,70.1,0,0,0,.9,9.1c-6.6-.4-17.6-2.2-23.7-7.6a7,7,0,0,0-9.3,10.4c11.8,10.7,31.2,11.3,36,11.3h.9a65.8,65.8,0,0,0,15.7,23.2c31.2,34.9,89.9,27.8,115.9-10l-1,1.7c41.7,32.7,5.5,16.6,2.1,39.9-.4,5.7-.8,11.4-1.4,18.4-7-3.4-13.7-6.4-20.2-10s-7.8-3-9.4,3.2c-14.6,79.5,77.6,81.5,69.2.5C566.6,453.7,565.4,450.5,561.4,449.4Zm-96.6-32.1a27.9,27.9,0,1,1,27.9-27.8A27.8,27.8,0,0,1,464.8,417.3Zm29.5,1.9a41.8,41.8,0,1,0-63.3-5.1,61.2,61.2,0,1,1,63.3,5.1Zm13.5,49.2c14.5,7.4,29.3,12.4,46.5,3.3C549.5,521.9,507.2,510.7,507.8,468.4Z" transform="translate(-28.2 -7.1)"/>
    <path d="M725.3,343.5a7.1,7.1,0,0,0-9.9.3c-5.8,6.2-17.5,8.8-23.8,9.6-4.4-33.2-28.3-63.2-71.3-62.4-100.8-.7-95.8,146.5-3.6,147.9,38.7,1.1,62.4-20.7,71.4-48,7.1-.3,23.2-2,33.5-11.3a6.9,6.9,0,0,0,.5-9.8,7,7,0,0,0-9.9-.6c-5.2,4.7-14.2,6.7-20.8,7.4a69.9,69.9,0,0,0,.8-9.2c6.6-.7,23.5-3.5,33.4-14A7.1,7.1,0,0,0,725.3,343.5ZM619.2,417.3a27.9,27.9,0,1,1,27.9-27.8A27.8,27.8,0,0,1,619.2,417.3Zm31.6-.4a41.5,41.5,0,0,0,10.3-27.4,41.9,41.9,0,1,0-83.7,0,41.5,41.5,0,0,0,10.3,27.4,61.2,61.2,0,1,1,63.1,0Z" transform="translate(-28.2 -7.1)"/>
  </g>
</svg>
